{
    "asset" : {
        "generator" : "Khronos glTF Blender I/O v1.6.16",
        "version" : "2.0"
    },
    "scene" : 0,
    "scenes" : [
        {
            "name" : "Scene",
            "nodes" : [
                1
            ]
        }
    ],
    "nodes" : [
        {
            "mesh" : 0,
            "name" : "Icing"
        },
        {
            "children" : [
                0
            ],
            "mesh" : 1,
            "name" : "Donut",
            "translation" : [
                -0.001093565602786839,
                0.019949663430452347,
                -0.0001496194745413959
            ]
        }
    ],
    "materials" : [
        {
            "doubleSided" : true,
            "name" : "Material.001",
            "pbrMetallicRoughness" : {
                "baseColorFactor" : [
                    0.8000000715255737,
                    0.05667726323008537,
                    0.4550391435623169,
                    1
                ],
                "metallicFactor" : 0,
                "roughnessFactor" : 0.25
            }
        },
        {
            "doubleSided" : true,
            "name" : "Material.002",
            "pbrMetallicRoughness" : {
                "baseColorFactor" : [
                    0.8000000715255737,
                    0.5938380360603333,
                    0.34376785159111023,
                    1
                ],
                "metallicFactor" : 0,
                "roughnessFactor" : 0.5
            }
        }
    ],
    "meshes" : [
        {
            "name" : "Torus.001",
            "primitives" : [
                {
                    "attributes" : {
                        "POSITION" : 0,
                        "NORMAL" : 1,
                        "TEXCOORD_0" : 2
                    },
                    "indices" : 3,
                    "material" : 0
                }
            ]
        },
        {
            "name" : "Torus",
            "primitives" : [
                {
                    "attributes" : {
                        "POSITION" : 4,
                        "NORMAL" : 5,
                        "TEXCOORD_0" : 6
                    },
                    "indices" : 7,
                    "material" : 1
                }
            ]
        }
    ],
    "accessors" : [
        {
            "bufferView" : 0,
            "componentType" : 5126,
            "count" : 3898,
            "max" : [
                0.06867504864931107,
                0.025855347514152527,
                0.06781264394521713
            ],
            "min" : [
                -0.06857901811599731,
                0.004511869978159666,
                -0.0667807012796402
            ],
            "type" : "VEC3"
        },
        {
            "bufferView" : 1,
            "componentType" : 5126,
            "count" : 3898,
            "type" : "VEC3"
        },
        {
            "bufferView" : 2,
            "componentType" : 5126,
            "count" : 3898,
            "type" : "VEC2"
        },
        {
            "bufferView" : 3,
            "componentType" : 5123,
            "count" : 20736,
            "type" : "SCALAR"
        },
        {
            "bufferView" : 4,
            "componentType" : 5126,
            "count" : 1327,
            "max" : [
                0.06534191220998764,
                0.022033415734767914,
                0.06585024297237396
            ],
            "min" : [
                -0.06851571798324585,
                -0.019144291058182716,
                -0.06455593556165695
            ],
            "type" : "VEC3"
        },
        {
            "bufferView" : 5,
            "componentType" : 5126,
            "count" : 1327,
            "type" : "VEC3"
        },
        {
            "bufferView" : 6,
            "componentType" : 5126,
            "count" : 1327,
            "type" : "VEC2"
        },
        {
            "bufferView" : 7,
            "componentType" : 5123,
            "count" : 6912,
            "type" : "SCALAR"
        }
    ],
    "bufferViews" : [
        {
            "buffer" : 0,
            "byteLength" : 46776,
            "byteOffset" : 0
        },
        {
            "buffer" : 0,
            "byteLength" : 46776,
            "byteOffset" : 46776
        },
        {
            "buffer" : 0,
            "byteLength" : 31184,
            "byteOffset" : 93552
        },
        {
            "buffer" : 0,
            "byteLength" : 41472,
            "byteOffset" : 124736
        },
        {
            "buffer" : 0,
            "byteLength" : 15924,
            "byteOffset" : 166208
        },
        {
            "buffer" : 0,
            "byteLength" : 15924,
            "byteOffset" : 182132
        },
        {
            "buffer" : 0,
            "byteLength" : 10616,
            "byteOffset" : 198056
        },
        {
            "buffer" : 0,
            "byteLength" : 13824,
            "byteOffset" : 208672
        }
    ],
    "buffers" : [
        {
            "byteLength" : 222496,
            "uri" : "data:application/octet-stream;base64,"
        }
    ]
}
